<?xml version="1.0" encoding="UTF-8" standalone="no"?>
<svg
   xmlns:dc="http://purl.org/dc/elements/1.1/"
   xmlns:cc="http://creativecommons.org/ns#"
   xmlns:rdf="http://www.w3.org/1999/02/22-rdf-syntax-ns#"
   xmlns:svg="http://www.w3.org/2000/svg"
   xmlns="http://www.w3.org/2000/svg"
   xmlns:sodipodi="http://sodipodi.sourceforge.net/DTD/sodipodi-0.dtd"
   xmlns:inkscape="http://www.inkscape.org/namespaces/inkscape"
   id="Capa_1"
   enable-background="new 0 0 511.975 511.975"
   height="512"
   viewBox="0 0 511.975 511.975"
   width="512"
   version="1.1"
   sodipodi:docname="coinlogo1.svg"
   inkscape:version="1.0.2 (394de47547, 2021-03-26)">
  <metadata
     id="metadata39">
    <rdf:RDF>
      <cc:Work
         rdf:about="">
        <dc:format>image/svg+xml</dc:format>
        <dc:type
           rdf:resource="http://purl.org/dc/dcmitype/StillImage" />
        <dc:title />
      </cc:Work>
    </rdf:RDF>
  </metadata>
  <defs
     id="defs37" />
  <sodipodi:namedview
     pagecolor="#ffffff"
     bordercolor="#666666"
     borderopacity="1"
     objecttolerance="10"
     gridtolerance="10"
     guidetolerance="10"
     inkscape:pageopacity="0"
     inkscape:pageshadow="2"
     inkscape:window-width="1680"
     inkscape:window-height="980"
     id="namedview35"
     showgrid="false"
     inkscape:zoom="0.82106903"
     inkscape:cx="256"
     inkscape:cy="267.92541"
     inkscape:window-x="0"
     inkscape:window-y="0"
     inkscape:window-maximized="1"
     inkscape:current-layer="g6"
     inkscape:document-rotation="0" />
  <path
     d="m 0,255.988 c 0,45.463 11.827,88.111 32.613,125.127 55.754,0.768 103.317,40.548 113.966,95.33 l 2.355,12.083 c 32.562,15.052 68.81,23.448 107.055,23.448 141.355,-10e-4 255.986,-114.632 255.986,-255.988 0,-45.617 -11.929,-88.469 -32.869,-125.536 C 435.23,52.58 351.727,0 255.987,0 160.401,0 77.052,52.375 33.073,129.991 c 0,0.051 -0.051,0.102 -0.051,0.154 C 11.98,167.262 0,210.217 0,255.988 Z"
     fill="#4c1760"
     id="path2"
     style="fill:#f0ad4e;fill-opacity:1" />
  <g
     id="g6">
    <path
       d="m 511.975,255.988 c 0,45.463 -11.827,88.111 -32.613,125.127 -55.754,0.768 -103.317,40.548 -113.966,95.33 l -2.355,12.083 C 330.479,503.58 294.231,511.976 255.986,511.976 114.631,511.975 0,397.344 0,255.988 0,210.371 11.929,167.519 32.869,130.452 c 0.204,-0.41 0.46,-0.819 0.665,-1.178 0.051,-0.102 0.102,-0.205 0.154,-0.256 25.394,44.388 63.689,80.431 109.818,103.009 5.223,2.56 10.598,4.966 16.026,7.168 29.028,11.827 60.719,18.482 93.896,18.789 h 5.12 c 33.176,-0.307 64.868,-6.963 93.896,-18.789 5.427,-2.201 10.803,-4.608 16.025,-7.168 46.078,-22.578 84.425,-58.621 109.819,-103.009 0.051,0.051 0.102,0.154 0.154,0.256 0.154,0.205 0.307,0.461 0.461,0.717 0,0.051 0.051,0.102 0.051,0.154 21.041,37.117 33.021,80.072 33.021,125.843 z"
       fill="#3a004d"
       id="path4"
       style="fill:#f0ad4e;fill-opacity:1" />
  </g>
  <g
     id="g16"
     transform="matrix(-1,0,0,1,511.975,0)">
    <path
       d="m 342.771,232.567 32.541,-32.541 -51.654,-51.654 c -27.919,-27.919 -62.573,-47.882 -100.383,-58.1 -13.9,-3.757 -28.261,-5.537 -42.66,-5.537 H 139.5 c -6.046,0 -10.948,4.902 -10.948,10.948 0,19.37 15.702,35.072 35.072,35.072 h 8.248 c 42.519,0 83.731,15.912 114.399,45.362 0.822,0.79 1.637,1.588 2.445,2.395 z"
       fill="#ffa67d"
       id="path8"
       style="fill:#f6f4f4;fill-opacity:1" />
    <path
       d="m 479.35,381.1 c -13.649,24.35 -31.19,46.221 -51.76,64.827 L 216.339,312.454 c 4.802,0 9.594,-0.328 14.335,-0.952 4.761,-0.645 9.461,-1.567 14.09,-2.816 10.976,-2.96 20.264,-9.41 26.807,-17.95 6.553,-8.549 10.373,-19.199 10.373,-30.575 0,-1.167 -0.042,-2.324 -0.133,-3.492 -0.911,-13.311 -7.137,-25.772 -17.336,-34.569 l -5.294,-4.577 c -9.993,-8.601 -22.752,-13.342 -35.93,-13.342 h -23.653 c -11.622,0 -22.968,4.414 -31.088,12.749 -7.874,8.089 -18.072,12.523 -28.496,13.291 -5.058,0.378 -10.168,-0.092 -15.093,-1.444 -6.594,-1.802 -10.464,-7.587 -10.69,-13.628 -0.133,-3.881 1.219,-7.875 4.322,-10.988 l 20.489,-20.642 c 13.977,-14.1 33.012,-22.056 52.867,-22.138 l 60.771,-0.236 c 8.908,-0.052 17.642,1.515 25.865,4.495 17.489,6.348 35.511,11.059 53.839,13.741 23.305,3.431 43.917,16.978 56.502,36.883 l 1.853,3.39 z"
       fill="#ffc0a3"
       id="path10"
       style="fill:#f6f6f6;fill-opacity:1" />
    <path
       d="m 427.588,445.924 c -19.109,17.279 -40.838,31.708 -64.527,42.618 l -21.619,-59.317 c -2.19,-6 -6.87,-10.7 -12.769,-13.13 -0.03,-0.01 -0.06,-0.02 -0.09,-0.04 -8.379,-3.47 -16.089,-8.589 -22.629,-15.129 -9.97,-9.959 -21.719,-17.749 -34.478,-23.029 -12.779,-5.29 -26.568,-8.09 -40.668,-8.09 H 170.34 c -16.109,0 -29.129,-13.28 -28.669,-29.479 0.42,-15.639 13.639,-27.879 29.258,-27.879 h 45.408 c 4.8,0 9.6,-0.32 14.339,-0.95 39.598,0 77.516,11.159 109.985,31.149 32.468,19.999 59.487,48.838 77.316,84.206 z"
       fill="#ffa67d"
       id="path14"
       style="fill:#f6f4f4;fill-opacity:1" />
  </g>
  <g
     id="g30"
     transform="matrix(-1,0,0,1,511.975,0)">
    <path
       d="m 153.879,325.556 c -31.42,0 -56.904,-25.486 -56.904,-57.021 0,-31.419 25.485,-56.904 56.904,-56.904 l 0.115,0.115 c 19.668,35.377 19.668,78.435 -0.115,113.81 z"
       fill="#ffe706"
       id="path18" />
    <path
       d="m 210.829,268.591 c 0,31.45 -25.5,56.965 -56.95,56.965 V 211.632 c 31.45,0 56.95,25.508 56.95,56.959 z"
       fill="#ffbf03"
       id="path20" />
    <g
       id="g28">
      <g
         id="g26">
        <path
           d="m 153.887,307.026 c -21.199,0 -38.394,-17.195 -38.394,-38.471 0,-21.198 17.195,-38.392 38.394,-38.392 l 0.078,0.077 c 13.269,23.868 13.269,52.919 -0.078,76.786 z"
           fill="#ffbf03"
           id="path22" />
        <path
           d="m 192.311,268.592 c 0,21.219 -17.206,38.434 -38.424,38.434 v -76.864 c 21.218,0 38.424,17.21 38.424,38.43 z"
           fill="#f18900"
           id="path24" />
      </g>
    </g>
  </g>
</svg>
