<?xml version="1.0" encoding="UTF-8" standalone="no"?>
<svg
   xmlns:dc="http://purl.org/dc/elements/1.1/"
   xmlns:cc="http://creativecommons.org/ns#"
   xmlns:rdf="http://www.w3.org/1999/02/22-rdf-syntax-ns#"
   xmlns:svg="http://www.w3.org/2000/svg"
   xmlns="http://www.w3.org/2000/svg"
   xmlns:sodipodi="http://sodipodi.sourceforge.net/DTD/sodipodi-0.dtd"
   xmlns:inkscape="http://www.inkscape.org/namespaces/inkscape"
   viewBox="0 0 952.77 338.7"
   version="1.1"
   id="svg60"
   sodipodi:docname="pix.svg"
   inkscape:version="1.0.2 (394de47547, 2021-03-26)">
  <metadata
     id="metadata66">
    <rdf:RDF>
      <cc:Work
         rdf:about="">
        <dc:format>image/svg+xml</dc:format>
        <dc:type
           rdf:resource="http://purl.org/dc/dcmitype/StillImage" />
        <dc:title></dc:title>
      </cc:Work>
    </rdf:RDF>
  </metadata>
  <defs
     id="defs64" />
  <sodipodi:namedview
     pagecolor="#ffffff"
     bordercolor="#666666"
     borderopacity="1"
     objecttolerance="10"
     gridtolerance="10"
     guidetolerance="10"
     inkscape:pageopacity="0"
     inkscape:pageshadow="2"
     inkscape:window-width="1680"
     inkscape:window-height="980"
     id="namedview62"
     showgrid="false"
     inkscape:zoom="1.521604"
     inkscape:cx="206.64452"
     inkscape:cy="169.35001"
     inkscape:window-x="0"
     inkscape:window-y="0"
     inkscape:window-maximized="1"
     inkscape:current-layer="svg60" />
  <path
     d="M246.13,264.53A46.07,46.07,0,0,1,213.35,251L166,203.62a9,9,0,0,0-12.44,0l-47.51,47.51A46.09,46.09,0,0,1,73.27,264.7H64l60,60a48,48,0,0,0,67.81,0l60.12-60.13Z"
     fill="#32bcad"
     id="path12"
     style="fill:#343a40;fill-opacity:1" />
  <path
     d="M73.28,97.09a46.08,46.08,0,0,1,32.78,13.57l47.51,47.52a8.81,8.81,0,0,0,12.44,0l47.34-47.34a46,46,0,0,1,32.78-13.58h5.7L191.71,37.14a47.94,47.94,0,0,0-67.81,0L64,97.09Z"
     fill="#32bcad"
     id="path14"
     style="fill:#343a40;fill-opacity:1" />
  <path
     d="M301.56,147l-36.33-36.33a7,7,0,0,1-2.58.52H246.13a32.62,32.62,0,0,0-22.93,9.5L175.86,168a22.74,22.74,0,0,1-32.13,0L96.21,120.51A32.62,32.62,0,0,0,73.28,111H53a7.12,7.12,0,0,1-2.44-.49L14,147a48,48,0,0,0,0,67.81l36.48,36.48a6.85,6.85,0,0,1,2.44-.49H73.28a32.63,32.63,0,0,0,22.93-9.51l47.51-47.51c8.59-8.58,23.56-8.58,32.14,0l47.34,47.33a32.62,32.62,0,0,0,22.93,9.5h16.52a6.9,6.9,0,0,1,2.58.52l36.33-36.33a47.94,47.94,0,0,0,0-67.81"
     fill="#32bcad"
     id="path16"
     style="fill:#343a40;fill-opacity:1" />
</svg>
