<?xml version="1.0" encoding="iso-8859-1"?>
<!-- Generator: Adobe Illustrator 19.0.0, SVG Export Plug-In . SVG Version: 6.00 Build 0)  -->
<svg version="1.1" id="Layer_1" xmlns="http://www.w3.org/2000/svg" xmlns:xlink="http://www.w3.org/1999/xlink" x="0px" y="0px"
	 viewBox="0 0 511.998 511.998" style="enable-background:new 0 0 511.998 511.998;" xml:space="preserve">
<g>
	<g>
		<g>
			<path d="M511.952,484.499l-0.258-4.055l-4.313-67.82c-2.082-32.733-23.385-60.938-54.271-71.853l-101.475-35.863
				c-6.137-2.17-12.979-1.953-18.965,0.563c-0.317,0.133-0.629,0.277-0.94,0.423l-24.278-7.494l-0.002-20.151
				c25.205-16.913,44.67-47.647,45.8-76.124h0.714c11.077,0,20.089-9.012,20.089-20.089v-18.829c0-2.443-0.46-4.775-1.263-6.943
				c4.865-2.621,8.189-7.812,8.189-13.782v-10.514c0-7.624-5.417-13.987-12.549-15.335v-2.991c0-0.882-0.011-1.76-0.032-2.637
				c-0.237-9.324-1.767-18.52-4.546-27.33c-1.245-3.951-5.46-6.148-9.408-4.896c-3.95,1.246-6.143,5.458-4.896,9.408
				c2.356,7.473,3.654,15.278,3.854,23.198c0.02,0.749,0.028,1.502,0.028,2.257v10.229c0,4.143,3.357,7.5,7.5,7.5h4.682
				c0.125,0,0.367,0.211,0.367,0.598v10.514c0,0.388-0.242,0.599-0.367,0.599H146.387c-0.125,0-0.367-0.211-0.367-0.599v-10.514
				c0-0.387,0.242-0.598,0.367-0.598h4.681c4.143,0,7.5-3.357,7.5-7.5v-10.229c0-0.755,0.01-1.508,0.029-2.256
				c1.004-39.577,30.123-73.063,67.8-79.767V59.21v0.014c0,6.848,2.753,13.062,7.206,17.604c0.058,0.059,0.113,0.121,0.171,0.18
				c0.061,0.061,0.126,0.119,0.188,0.179c4.539,4.45,10.747,7.201,17.587,7.201h0.014h8.881h0.014c6.84,0,13.048-2.751,17.587-7.201
				c0.062-0.061,0.127-0.118,0.188-0.179c0.059-0.059,0.114-0.121,0.171-0.18c4.453-4.542,7.206-10.756,7.206-17.604V59.21V31.612
				c20.296,3.582,38.664,14.91,51.315,31.901c2.476,3.321,7.172,4.008,10.495,1.536c3.322-2.474,4.01-7.173,1.536-10.495
				c-16.055-21.56-39.936-35.405-66.095-38.497c-4.169-8.153-12.649-13.751-22.417-13.751h-8.881
				c-9.77,0-18.251,5.599-22.419,13.754c-22.105,2.609-42.664,12.893-58.325,29.288c-16.927,17.72-26.593,41.037-27.218,65.657
				c-0.021,0.876-0.033,1.754-0.033,2.636v2.991c-7.132,1.349-12.548,7.712-12.548,15.335v10.514c0,5.97,3.324,11.161,8.189,13.782
				c-0.802,2.168-1.263,4.5-1.263,6.943v18.829c0,11.077,9.012,20.089,20.089,20.089h0.708c1.049,28.5,20.554,59.37,45.803,76.324
				l-0.003,19.951l-24.281,7.491c-6.203-2.904-13.438-3.267-19.898-0.983L58.888,340.772c-30.887,10.915-52.189,39.119-54.27,71.853
				l-0.537,8.447c-0.263,4.134,2.876,7.697,7.01,7.961c4.126,0.243,7.697-2.877,7.961-7.01l0.537-8.447
				c1.698-26.726,19.086-49.752,44.297-58.662l25.951-9.171v148.949H23.664c-2.112,0-4.092-0.743-5.662-2.11
				c-0.224-0.195-0.44-0.403-0.647-0.624c-1.453-1.549-2.271-3.512-2.349-5.605c-0.011-0.299-0.007-0.6,0.012-0.903l2.101-33.038
				c0.263-4.134-2.876-7.697-7.01-7.961c-4.146-0.256-7.698,2.875-7.961,7.01l-2.1,33.036v0.001
				c-0.026,0.407-0.041,0.814-0.046,1.22c-0.065,5.685,1.936,11.253,5.604,15.594c0.262,0.31,0.533,0.614,0.811,0.911
				c0.557,0.593,1.142,1.155,1.753,1.684c4.276,3.701,9.8,5.785,15.492,5.785h0.001h73.673h317.326h73.673
				c1.22,0,2.432-0.096,3.626-0.282c5.173-0.81,10.002-3.33,13.621-7.186c4.182-4.457,6.484-10.413,6.415-16.504
				C511.993,485.313,511.978,484.906,511.952,484.499z M353.321,158.118h0.644c2.806,0,5.089,2.282,5.089,5.088v18.829
				c0,2.806-2.283,5.089-5.089,5.089h-0.644V158.118z M241.397,27.485c0-0.817,0.11-1.646,0.338-2.534
				c0.011-0.045,0.016-0.091,0.026-0.135c1.172-4.32,5.116-7.51,9.802-7.51h8.881c4.685,0,8.63,3.19,9.802,7.509
				c0.01,0.045,0.015,0.091,0.026,0.135c0.228,0.888,0.338,1.717,0.338,2.534v31.725c0,2.802-1.135,5.343-2.969,7.185
				c-0.003,0.003-0.005,0.006-0.008,0.009c-0.092,0.092-0.193,0.175-0.289,0.263c-1.815,1.683-4.236,2.721-6.9,2.721h-8.881
				c-2.665,0-5.085-1.038-6.9-2.721c-0.095-0.089-0.197-0.171-0.289-0.263c-0.003-0.003-0.005-0.006-0.008-0.009
				c-1.833-1.842-2.969-4.383-2.969-7.185V27.485z M158.678,187.124h-0.643c-2.805,0-5.089-2.283-5.089-5.089v-18.829
				c0-2.806,2.283-5.088,5.089-5.088h0.643V187.124z M335.574,320.684l2.416-1.162c0.099-0.047,0.201-0.082,0.3-0.127
				c2.611-1.16,5.65-1.296,8.346-0.344l18.646,6.59l-55.144,42.079c-2.081,1.588-4.563,2.427-7.18,2.427
				c-2.311,0-4.554-0.67-6.487-1.938l-25.26-16.567L335.574,320.684z M173.678,199.724v-5.1v-36.507h164.643v36.507v4.902
				c0,25.834-20.789,56.431-45.173,69.842c-0.054,0.03-0.108,0.059-0.162,0.088c-0.789,0.431-1.582,0.841-2.378,1.235
				c-0.132,0.065-0.264,0.133-0.396,0.197c-1.695,0.826-3.404,1.563-5.121,2.211c-0.231,0.087-0.461,0.168-0.691,0.251
				c-0.63,0.228-1.261,0.443-1.893,0.646c-0.244,0.078-0.487,0.158-0.73,0.232c-0.837,0.255-1.674,0.495-2.512,0.703l-0.981,0.244
				c-4.804,1.194-8.906,2.137-12.601,2.782c-3.695,0.645-6.983,0.99-10.157,0.99c-5.586-0.001-11.321-1.032-19.273-2.953
				c-0.049-0.012-0.095-0.022-0.145-0.034c-0.156-0.038-0.319-0.078-0.477-0.117c-1.004-0.245-2.035-0.5-3.113-0.772
				c-0.832-0.21-1.663-0.451-2.494-0.707l-0.719-0.232c-0.115-0.037-0.228-0.079-0.343-0.117c-0.509-0.169-1.017-0.341-1.524-0.526
				c-0.239-0.086-0.478-0.172-0.714-0.261c-0.038-0.015-0.077-0.031-0.115-0.046c-1.702-0.652-3.396-1.387-5.076-2.215
				c-0.051-0.025-0.101-0.05-0.152-0.076C195.943,258.286,173.678,226.415,173.678,199.724z M165.362,319.051
				c2.798-0.988,5.974-0.815,8.648,0.471l66.778,32.119l-25.262,16.567c-1.934,1.269-4.177,1.938-6.485,1.938
				c-0.001,0-0.001,0-0.001,0c-2.616,0-5.1-0.84-7.181-2.427l-55.144-42.079L165.362,319.051z M248.498,494.692H104.837v-154.25
				l24.98-8.828l62.943,48.031c4.65,3.548,10.432,5.502,16.279,5.502c0.001,0,0.001,0,0.002,0c5.239,0,10.327-1.52,14.712-4.396
				l24.745-16.228V494.692z M216.742,323.429l-16.588-7.979l10.24-3.158c5.473-1.688,9.149-6.671,9.149-12.397l0.002-13.374
				c1.558,0.637,3.126,1.214,4.703,1.735c0.149,0.049,0.292,0.102,0.443,0.151l0.069,0.022c0.353,0.113,0.706,0.229,1.059,0.336
				c1.102,0.336,2.095,0.616,3.035,0.854c2.556,0.645,4.94,1.222,7.202,1.734c0.664,0.15,1.32,0.295,1.964,0.433
				c0.078,0.017,0.159,0.035,0.236,0.052c6.347,1.351,11.737,2.1,17.166,2.109c0.033,0,0.067,0.001,0.1,0.001
				c0.001,0,0.002,0,0.003,0c5.911,0,11.753-0.87,18.834-2.431c2.361-0.521,4.859-1.118,7.543-1.786l0.981-0.244
				c1.007-0.25,2.016-0.537,3.025-0.84c0.321-0.096,0.641-0.197,0.962-0.298c0.69-0.219,1.381-0.451,2.071-0.695
				c0.371-0.13,0.743-0.254,1.113-0.391c0.799-0.297,1.597-0.609,2.396-0.938l0.002,13.569c0,5.727,3.677,10.709,9.148,12.396
				l10.241,3.161l-55.843,26.86L216.742,323.429z M407.163,494.693H263.498v-130.17l24.746,16.228
				c4.385,2.876,9.473,4.396,14.714,4.396c5.848,0,11.63-1.954,16.279-5.503l62.944-48.031l24.982,8.829V494.693z M495.732,490.536
				c-0.309,0.504-0.672,0.98-1.088,1.423c-1.654,1.763-3.894,2.734-6.308,2.734h-66.173v-148.95l25.95,9.171
				c2.364,0.835,4.658,1.795,6.878,2.87c21.455,10.391,35.88,31.573,37.42,55.792l4.57,71.875c0.019,0.303,0.023,0.604,0.012,0.903
				C496.937,487.849,496.504,489.277,495.732,490.536z"/>
			<path d="M368.804,411.165h-55.916c-7.884,0-14.298,6.414-14.298,14.298v21.76c0,7.884,6.414,14.298,14.298,14.298h55.916
				c7.884,0,14.298-6.414,14.298-14.298v-21.76C383.102,417.579,376.688,411.165,368.804,411.165z M368.102,446.52H313.59v-20.355
				h54.512V446.52z"/>
		</g>
	</g>
</g>
<g>
</g>
<g>
</g>
<g>
</g>
<g>
</g>
<g>
</g>
<g>
</g>
<g>
</g>
<g>
</g>
<g>
</g>
<g>
</g>
<g>
</g>
<g>
</g>
<g>
</g>
<g>
</g>
<g>
</g>
</svg>
